<svg width="134" height="138" viewBox="0 0 134 138" fill="none" xmlns="http://www.w3.org/2000/svg">
<path d="M24.9803 31.765C30.6123 31.765 34.943 33.749 37.9723 37.717C41.0016 41.6423 42.5163 47.2743 42.5163 54.613C42.5163 61.9516 41.0016 67.6263 37.9723 71.637C34.943 75.605 30.6123 77.589 24.9803 77.589C19.3483 77.589 15.0176 75.605 11.9883 71.637C8.95898 67.6263 7.44431 61.9516 7.44431 54.613C7.44431 47.2743 8.95898 41.6423 11.9883 37.717C15.0176 33.749 19.3483 31.765 24.9803 31.765ZM24.9803 40.917C23.7856 40.917 22.847 41.3223 22.1643 42.133C21.5243 42.901 21.055 44.2663 20.7563 46.229C20.5003 48.1916 20.3723 50.9863 20.3723 54.613C20.3723 58.2823 20.5003 61.0983 20.7563 63.061C21.055 64.981 21.5243 66.3463 22.1643 67.157C22.847 67.9676 23.7856 68.373 24.9803 68.373C26.2176 68.373 27.1563 68.0103 27.7963 67.285C28.4363 66.517 28.8843 65.1516 29.1403 63.189C29.439 61.2263 29.5883 58.3676 29.5883 54.613C29.5883 50.8156 29.439 47.957 29.1403 46.037C28.8843 44.0743 28.4363 42.7303 27.7963 42.005C27.1563 41.2796 26.2176 40.917 24.9803 40.917ZM69.6543 32.789V76.309H57.3663V44.821L48.4703 50.261L42.9663 42.005L58.3903 32.789H69.6543Z" fill="#181F2E"/>
<path d="M66.5642 68.1209L133.432 46.1328L83 91.4851L-2.92506e-05 91.4851L66.5642 68.1209Z" fill="#FAFAFA"/>
</svg>
