<svg width="134" height="138" viewBox="0 0 134 138" fill="none" xmlns="http://www.w3.org/2000/svg">
<path d="M24.9803 31.765C30.6123 31.765 34.943 33.749 37.9723 37.717C41.0016 41.6423 42.5163 47.2743 42.5163 54.613C42.5163 61.9516 41.0016 67.6263 37.9723 71.637C34.943 75.605 30.6123 77.589 24.9803 77.589C19.3483 77.589 15.0176 75.605 11.9883 71.637C8.95898 67.6263 7.44431 61.9516 7.44431 54.613C7.44431 47.2743 8.95898 41.6423 11.9883 37.717C15.0176 33.749 19.3483 31.765 24.9803 31.765ZM24.9803 40.917C23.7856 40.917 22.847 41.3223 22.1643 42.133C21.5243 42.901 21.055 44.2663 20.7563 46.229C20.5003 48.1916 20.3723 50.9863 20.3723 54.613C20.3723 58.2823 20.5003 61.0983 20.7563 63.061C21.055 64.981 21.5243 66.3463 22.1643 67.157C22.847 67.9676 23.7856 68.373 24.9803 68.373C26.2176 68.373 27.1563 68.0103 27.7963 67.285C28.4363 66.517 28.8843 65.1516 29.1403 63.189C29.439 61.2263 29.5883 58.3676 29.5883 54.613C29.5883 50.8156 29.439 47.957 29.1403 46.037C28.8843 44.0743 28.4363 42.7303 27.7963 42.005C27.1563 41.2796 26.2176 40.917 24.9803 40.917ZM59.2073 31.765C62.6633 31.765 65.6073 32.341 68.0393 33.493C70.4713 34.645 72.2846 36.2023 73.4793 38.165C74.7166 40.085 75.3353 42.197 75.3353 44.501C75.3353 46.677 74.93 48.7036 74.1193 50.581C73.3513 52.4583 71.8153 54.677 69.5113 57.237C67.25 59.797 63.8793 62.997 59.3993 66.837H76.2313L74.9513 76.309H45.0633V67.605C50.0126 62.9116 53.6606 59.3063 56.0073 56.789C58.3966 54.2716 60.0606 52.2023 60.9993 50.581C61.938 48.9596 62.4073 47.4023 62.4073 45.909C62.4073 44.4583 62.002 43.3276 61.1913 42.517C60.3806 41.6636 59.25 41.237 57.7993 41.237C56.3913 41.237 55.1113 41.5996 53.9593 42.325C52.85 43.0076 51.698 44.0956 50.5033 45.589L43.2713 39.829C45.106 37.3543 47.3673 35.3916 50.0553 33.941C52.7433 32.4903 55.794 31.765 59.2073 31.765Z" fill="#181F2E"/>
<path d="M66.5642 68.1209L133.432 46.1328L86 91.4851L-2.92506e-05 91.4851L66.5642 68.1209Z" fill="#FAFAFA"/>
</svg>
