<svg width="134" height="138" viewBox="0 0 134 138" fill="none" xmlns="http://www.w3.org/2000/svg">
<path d="M24.9803 31.765C30.6123 31.765 34.943 33.749 37.9723 37.717C41.0016 41.6423 42.5163 47.2743 42.5163 54.613C42.5163 61.9516 41.0016 67.6263 37.9723 71.637C34.943 75.605 30.6123 77.589 24.9803 77.589C19.3483 77.589 15.0176 75.605 11.9883 71.637C8.95898 67.6263 7.44431 61.9516 7.44431 54.613C7.44431 47.2743 8.95898 41.6423 11.9883 37.717C15.0176 33.749 19.3483 31.765 24.9803 31.765ZM24.9803 40.917C23.7856 40.917 22.847 41.3223 22.1643 42.133C21.5243 42.901 21.055 44.2663 20.7563 46.229C20.5003 48.1916 20.3723 50.9863 20.3723 54.613C20.3723 58.2823 20.5003 61.0983 20.7563 63.061C21.055 64.981 21.5243 66.3463 22.1643 67.157C22.847 67.9676 23.7856 68.373 24.9803 68.373C26.2176 68.373 27.1563 68.0103 27.7963 67.285C28.4363 66.517 28.8843 65.1516 29.1403 63.189C29.439 61.2263 29.5883 58.3676 29.5883 54.613C29.5883 50.8156 29.439 47.957 29.1403 46.037C28.8843 44.0743 28.4363 42.7303 27.7963 42.005C27.1563 41.2796 26.2176 40.917 24.9803 40.917ZM59.3993 31.765C62.6846 31.765 65.4793 32.2343 67.7833 33.173C70.13 34.1116 71.9006 35.413 73.0953 37.077C74.29 38.741 74.8873 40.6396 74.8873 42.773C74.8873 45.3756 74.162 47.573 72.7113 49.365C71.2606 51.157 69.1273 52.4796 66.3113 53.333C69.2553 53.6743 71.666 54.741 73.5433 56.533C75.4206 58.2823 76.3593 60.8423 76.3593 64.213C76.3593 66.645 75.6766 68.885 74.3113 70.933C72.9886 72.9383 70.9833 74.5596 68.2953 75.797C65.65 76.9916 62.45 77.589 58.6953 77.589C51.826 77.589 46.4713 75.2423 42.6313 70.549L49.2233 64.085C50.7166 65.5356 52.1033 66.581 53.3833 67.221C54.706 67.8183 56.178 68.117 57.7993 68.117C59.4633 68.117 60.8073 67.6903 61.8313 66.837C62.898 65.9836 63.4313 64.7463 63.4313 63.125C63.4313 61.2903 62.9193 59.9463 61.8953 59.093C60.914 58.2396 59.3566 57.813 57.2233 57.813H53.3833L54.7913 49.365H57.4153C59.1646 49.365 60.4873 48.981 61.3833 48.213C62.2793 47.4023 62.7273 46.3143 62.7273 44.949C62.7273 43.669 62.2793 42.6876 61.3833 42.005C60.53 41.2796 59.3353 40.917 57.7993 40.917C54.8553 40.917 52.1246 42.133 49.6073 44.565L43.3993 38.037C47.7086 33.8556 53.042 31.765 59.3993 31.765Z" fill="#181F2E"/>
<path d="M66.5642 68.1209L133.432 46.1328L90.5 91.4851L-2.92506e-05 91.4851L66.5642 68.1209Z" fill="#FAFAFA"/>
</svg>
