<svg width="134" height="138" viewBox="0 0 134 138" fill="none" xmlns="http://www.w3.org/2000/svg">
<path d="M24.9803 31.7651C30.6123 31.7651 34.943 33.7491 37.9723 37.7171C41.0016 41.6424 42.5163 47.2744 42.5163 54.6131C42.5163 61.9517 41.0016 67.6264 37.9723 71.6371C34.943 75.6051 30.6123 77.5891 24.9803 77.5891C19.3483 77.5891 15.0176 75.6051 11.9883 71.6371C8.95898 67.6264 7.44431 61.9517 7.44431 54.6131C7.44431 47.2744 8.95898 41.6424 11.9883 37.7171C15.0176 33.7491 19.3483 31.7651 24.9803 31.7651ZM24.9803 40.9171C23.7856 40.9171 22.847 41.3224 22.1643 42.1331C21.5243 42.9011 21.055 44.2664 20.7563 46.2291C20.5003 48.1917 20.3723 50.9864 20.3723 54.6131C20.3723 58.2824 20.5003 61.0984 20.7563 63.0611C21.055 64.9811 21.5243 66.3464 22.1643 67.1571C22.847 67.9677 23.7856 68.3731 24.9803 68.3731C26.2176 68.3731 27.1563 68.0104 27.7963 67.2851C28.4363 66.5171 28.8843 65.1517 29.1403 63.1891C29.439 61.2264 29.5883 58.3677 29.5883 54.6131C29.5883 50.8157 29.439 47.9571 29.1403 46.0371C28.8843 44.0744 28.4363 42.7304 27.7963 42.0051C27.1563 41.2797 26.2176 40.9171 24.9803 40.9171ZM80.6963 58.3891V67.7331H76.2163V76.3091H63.8003L63.7363 67.7331H45.4963V59.4771L57.4643 31.4451L68.2803 35.2851L58.4883 58.3891H63.8643L65.3363 48.9171H76.2163V58.3891H80.6963Z" fill="#181F2E"/>
<path d="M66.5642 68.1209L133.432 46.1328L81.9009 137.618L-2.31076e-05 91.4851L66.5642 68.1209Z" fill="#FAFAFA"/>
</svg>
