<svg width="1440" height="2052" viewBox="0 0 1440 2052" fill="none" xmlns="http://www.w3.org/2000/svg">
<g clip-path="url(#clip0_125_38)">
<path d="M-195.421 204.223L-147.223 269.593C-99.3333 335.52 -2.47578 465.421 105.933 574.374C214.342 683.327 335.842 768.54 472.976 825.404C610.417 881.71 764.261 908.271 926.346 919.889C1088.12 932.066 1258.91 927.904 1375.56 1021.91C1492.67 1115.09 1555.64 1306.43 1587.67 1401.13L1619.39 1496.38L1570.1 1585.76L1505.5 1550.13C1440.9 1514.51 1311.7 1443.26 1182.5 1372.01C1053.29 1300.77 924.092 1229.52 794.891 1158.27C665.69 1087.02 536.488 1015.77 407.287 944.525C278.086 873.277 148.884 802.029 19.6828 730.78C-109.519 659.532 -238.72 588.284 -303.321 552.66L-367.921 517.036L-195.421 204.223Z" fill="#E8EBEE"/>
</g>
<g clip-path="url(#clip1_125_38)">
<path d="M1374.63 1900.57L1323.69 1831.47C1273.07 1761.78 1170.7 1624.47 1056.11 1509.31C941.523 1394.14 813.098 1304.07 668.148 1243.96C522.872 1184.45 360.257 1156.38 188.931 1144.1C17.9313 1131.24 -162.593 1135.64 -285.889 1036.27C-409.674 937.787 -476.232 735.525 -510.08 635.427L-543.603 534.739L-491.504 440.262L-423.221 477.917C-354.938 515.571 -218.373 590.88 -81.807 666.189C54.7585 741.498 191.324 816.808 327.89 892.117C464.455 967.426 601.021 1042.73 737.586 1118.04C874.152 1193.35 1010.72 1268.66 1147.28 1343.97C1283.85 1419.28 1420.41 1494.59 1488.7 1532.24L1556.98 1569.9L1374.63 1900.57Z" fill="#E8EBEE"/>
</g>
<defs>
<clipPath id="clip0_125_38">
<rect width="2213.16" height="510.319" fill="white" transform="translate(-121.492 70.1607) rotate(28.8745)"/>
</clipPath>
<clipPath id="clip1_125_38">
<rect width="2339.31" height="539.449" fill="white" transform="translate(1296.48 2042.28) rotate(-151.125)"/>
</clipPath>
</defs>
</svg>
