<svg version="1.1" id="Layer_1" xmlns="http://www.w3.org/2000/svg" xmlns:xlink="http://www.w3.org/1999/xlink" x="0px" y="0px"
	 width="100%" viewBox="0 0 1437 824" enable-background="new 0 0 1437 824" xml:space="preserve">
<path fill="#E8EBEE" opacity="1.000000" stroke="none" 
	d="
M1438.000000,150.000000 
	C1438.000000,374.956055 1438.000000,599.912109 1438.000000,825.000000 
	C960.303955,825.000000 482.607941,825.000000 4.452243,824.531372 
	C3.991617,816.244629 3.989899,808.426575 3.989815,800.608521 
	C3.989473,769.003601 4.000948,737.398743 3.966669,705.793823 
	C3.964115,703.439697 4.772616,700.498840 1.000000,700.000000 
	C1.000000,467.637299 1.000000,235.274597 1.349041,2.497976 
	C20.818211,14.390116 39.796875,26.923332 59.095806,38.942291 
	C81.100777,52.646515 103.153488,66.305092 125.612846,79.241486 
	C160.040497,99.071487 194.411697,119.072777 229.595825,137.494507 
	C261.719025,154.313583 294.494507,170.035995 327.715271,184.566483 
	C358.904663,198.208466 390.774872,210.437439 422.847382,221.881683 
	C466.202667,237.351868 510.622711,249.345642 555.787964,258.416504 
	C570.568604,261.384979 585.314270,264.659637 600.212036,266.881348 
	C621.487000,270.054077 642.862427,272.608368 664.241821,275.009125 
	C681.840881,276.985352 699.490784,279.477936 717.148865,279.749908 
	C750.422241,280.262390 783.722900,279.588806 817.001587,278.897125 
	C831.231567,278.601349 845.449524,277.195068 859.646790,275.986938 
	C877.465088,274.470764 895.316895,273.108398 913.044312,270.825653 
	C934.871277,268.015045 956.654785,264.721527 978.329346,260.910645 
	C1003.933960,256.408752 1029.532349,251.713150 1054.896729,246.042908 
	C1086.777344,238.915970 1118.510498,231.072952 1150.134888,222.873718 
	C1178.903320,215.414932 1207.454468,207.113754 1236.076904,199.096786 
	C1268.214233,190.095367 1300.219360,180.600281 1332.480835,172.071640 
	C1356.036133,165.844513 1379.854370,160.563019 1403.672363,155.399628 
	C1414.973999,152.949615 1426.548950,151.760391 1438.000000,150.000000 
z"/>
</svg>