<svg width="36" height="35" viewBox="0 0 36 35" fill="none" xmlns="http://www.w3.org/2000/svg">
<path d="M2.61882 34.5V29H8.56048L3.67298 13.6916C2.81048 13.2333 2.09972 12.5611 1.54069 11.675C0.981662 10.7888 0.702148 9.84163 0.702148 8.83329C0.702148 7.30552 1.26118 6.00691 2.37923 4.93746C3.49729 3.86802 4.85493 3.33329 6.45215 3.33329C7.69798 3.33329 8.80805 3.67704 9.78236 4.36454C10.7567 5.05204 11.4355 5.93052 11.8188 6.99996H17.9522V5.16663C17.9522 4.64718 18.1358 4.21177 18.5032 3.86038C18.8706 3.50899 19.3258 3.33329 19.8688 3.33329C20.1563 3.33329 20.4358 3.39441 20.7074 3.51663C20.9789 3.63885 21.2105 3.82218 21.4021 4.06663L24.6605 1.13329C24.948 0.858294 25.2914 0.6826 25.6907 0.606211C26.09 0.529822 26.4813 0.583294 26.8647 0.766627L34.3396 4.06663C34.723 4.24996 34.9865 4.51732 35.1303 4.86871C35.274 5.2201 35.266 5.56385 35.1063 5.89996C34.9146 6.26663 34.6351 6.50343 34.2678 6.61038C33.9004 6.71732 33.541 6.69441 33.1897 6.54163L26.2896 3.51663L21.7855 7.54996V10.1166L26.2896 14.0583L33.1897 11.0333C33.541 10.8805 33.9084 10.8652 34.2917 10.9875C34.6751 11.1097 34.9466 11.3389 35.1063 11.675C35.298 12.0416 35.314 12.393 35.1542 12.7291C34.9945 13.0652 34.723 13.325 34.3396 13.5083L26.8647 16.9C26.4813 17.0833 26.09 17.1368 25.6907 17.0604C25.2914 16.984 24.948 16.8083 24.6605 16.5333L21.4021 13.6C21.2105 13.7833 20.9789 13.9514 20.7074 14.1041C20.4358 14.2569 20.1563 14.3333 19.8688 14.3333C19.3258 14.3333 18.8706 14.1576 18.5032 13.8062C18.1358 13.4548 17.9522 13.0194 17.9522 12.5V10.6666H11.8188C11.723 10.9111 11.6192 11.1402 11.5074 11.3541C11.3956 11.568 11.2438 11.7972 11.0521 12.0416L20.6355 29H27.5355V34.5H2.61882ZM6.45215 10.6666C6.9952 10.6666 7.45041 10.4909 7.81777 10.1395C8.18513 9.78816 8.36882 9.35274 8.36882 8.83329C8.36882 8.31385 8.18513 7.87843 7.81777 7.52704C7.45041 7.17566 6.9952 6.99996 6.45215 6.99996C5.90909 6.99996 5.45388 7.17566 5.08652 7.52704C4.71916 7.87843 4.53548 8.31385 4.53548 8.83329C4.53548 9.35274 4.71916 9.78816 5.08652 10.1395C5.45388 10.4909 5.90909 10.6666 6.45215 10.6666ZM12.4896 29H16.2271L7.98548 14.3333H7.79382L12.4896 29Z" fill="#A62047"/>
</svg>
