<svg width="45" height="46" viewBox="0 0 45 46" fill="none" xmlns="http://www.w3.org/2000/svg">
<path d="M22.5 19.5C20.567 19.5 19 21.067 19 23C19 24.933 20.567 26.5 22.5 26.5C24.433 26.5 26 24.933 26 23C26 21.067 24.433 19.5 22.5 19.5Z" fill="#4393F5"/>
<path fill-rule="evenodd" clip-rule="evenodd" d="M18.3 12.5C14.8206 12.5 12 15.3206 12 18.8V27.2C12 30.6794 14.8206 33.5 18.3 33.5H26.7C30.1794 33.5 33 30.6794 33 27.2V18.8C33 15.3206 30.1794 12.5 26.7 12.5H18.3ZM17.6 23C17.6 20.2938 19.7938 18.1 22.5 18.1C25.2062 18.1 27.4 20.2938 27.4 23C27.4 25.7062 25.2062 27.9 22.5 27.9C19.7938 27.9 17.6 25.7062 17.6 23ZM27.4 18.1H28.8V16.7H27.4V18.1Z" fill="#4393F5"/>
</svg>
