<svg width="45" height="43" viewBox="0 0 45 43" fill="none" xmlns="http://www.w3.org/2000/svg">
<path d="M15.5 11C13.567 11 12 12.567 12 14.5V17.3C12 25.4186 18.5814 32 26.7 32H29.5C31.433 32 33 30.433 33 28.5V26.5652C33 25.7698 32.5506 25.0427 31.8391 24.687L28.4568 22.9958C27.3138 22.4243 25.9296 22.9976 25.5255 24.21L25.1086 25.4606C24.9502 25.9358 24.4628 26.2187 23.9716 26.1205C20.8974 25.5056 18.4944 23.1026 17.8795 20.0284C17.7813 19.5372 18.0642 19.0498 18.5394 18.8914L20.0914 18.374C21.1325 18.027 21.7308 16.9371 21.4647 15.8725L20.6442 12.5907C20.4105 11.6558 19.5705 11 18.6069 11H15.5Z" fill="#4393F5"/>
</svg>
