<svg width="35" height="33" viewBox="0 0 35 33" fill="none" xmlns="http://www.w3.org/2000/svg">
<path d="M15.8887 1.71245C16.4693 -0.0745949 18.9975 -0.0745895 19.5781 1.71246L22.2372 9.89625C22.4969 10.6954 23.2416 11.2365 24.082 11.2365H32.6869C34.5659 11.2365 35.3472 13.641 33.827 14.7455L26.8655 19.8033C26.1856 20.2972 25.9012 21.1728 26.1609 21.9719L28.8199 30.1557C29.4006 31.9428 27.3552 33.4288 25.8351 32.3244L18.8735 27.2665C18.1937 26.7726 17.2731 26.7726 16.5933 27.2665L9.63173 32.3244C8.11157 33.4288 6.06622 31.9428 6.64687 30.1557L9.30595 21.9719C9.56562 21.1728 9.28115 20.2972 8.60131 19.8033L1.63976 14.7455C0.119607 13.641 0.900867 11.2365 2.77988 11.2365H11.3848C12.2252 11.2365 12.9699 10.6954 13.2296 9.89625L15.8887 1.71245Z" fill="#B92D2E"/>
</svg>
